<svg xmlns="http://www.w3.org/2000/svg" width="30" height="30" viewBox="0 0 30 30">
  <g id="om_tante" data-name="om tante" transform="translate(-24 -478)">
    <rect id="Rectangle_204" data-name="Rectangle 204" width="30" height="30" rx="4" transform="translate(24 478)" fill="#f5fafa"/>
    <g id="streamline-icon-clothes-design-needle-yarn_24x24_1_" data-name="streamline-icon-clothes-design-needle-yarn@24x24 (1)" transform="translate(21.502 481.511)">
      <path id="Path_11301" data-name="Path 11301" d="M15.944,8.692l6.806,6.8" transform="translate(-0.33 -0.608)" fill="none" stroke="#6da1a5" stroke-linecap="round" stroke-linejoin="round" stroke-width="1.25"/>
      <path id="Path_11302" data-name="Path 11302" d="M13.256,10.246,21.112,18.1" transform="translate(-0.13 -0.724)" fill="none" stroke="#6da1a5" stroke-linecap="round" stroke-linejoin="round" stroke-width="1.25"/>
      <path id="Path_11303" data-name="Path 11303" d="M11.7,12.935l6.8,6.8" transform="translate(-0.015 -0.923)" fill="none" stroke="#6da1a5" stroke-linecap="round" stroke-linejoin="round" stroke-width="1.25"/>
      <path id="Path_11308" data-name="Path 11308" d="M11.5,14.044a5.555,5.555,0,1,0,5.555-5.555A5.555,5.555,0,0,0,11.5,14.044Z" transform="translate(0 -0.593)" fill="none" stroke="#6da1a5" stroke-linecap="round" stroke-linejoin="round" stroke-width="1.25"/>
      <path id="Path_11309" data-name="Path 11309" d="M20.039,8.626l1.279-3.048" transform="translate(-0.633 -0.377)" fill="none" stroke="#6da1a5" stroke-linecap="round" stroke-linejoin="round" stroke-width="1.25"/>
      <path id="Path_11310" data-name="Path 11310" d="M20.5,4.083a1.389,1.389,0,1,0,1.389-1.389A1.389,1.389,0,0,0,20.5,4.083Z" transform="translate(-0.668 -0.164)" fill="none" stroke="#6da1a5" stroke-linecap="round" stroke-linejoin="round" stroke-width="1.25"/>
      <path id="Path_11311" data-name="Path 11311" d="M16,1.878A1.389,1.389,0,1,0,17.387.489,1.389,1.389,0,0,0,16,1.878Z" transform="translate(-0.334)" fill="none" stroke="#6da1a5" stroke-linecap="round" stroke-linejoin="round" stroke-width="1.25"/>
      <path id="Path_11312" data-name="Path 11312" d="M17.5,3.489V8.118" transform="translate(-0.445 -0.222)" fill="none" stroke="#6da1a5" stroke-linecap="round" stroke-linejoin="round" stroke-width="1.25"/>
      <path id="Path_11313" data-name="Path 11313" d="M17.426,20.489h4.166a1.389,1.389,0,0,1,0,2.778H16.5" transform="translate(-0.371 -1.483)" fill="none" stroke="#6da1a5" stroke-linecap="round" stroke-linejoin="round" stroke-width="1.25"/>
    </g>
  </g>
</svg>
