<svg width="150" height="150" viewBox="0 0 150 150" fill="none" xmlns="http://www.w3.org/2000/svg">
<path d="M150 75C150 116.421 116.421 150 75 150C33.5786 150 0 116.421 0 75C0 33.5786 33.5786 0 75 0C116.421 0 150 33.5786 150 75Z" fill="#D9D9D9"/>
<path d="M54 61.8027V121.803C54 121.803 67.4085 117.536 76 114.803C78.5384 114.022 79.4616 113.584 82 112.803C91.9584 108.897 104.5 104.303 104.5 104.303L109.5 102.303L126.5 95.8027L125 36.8027L54 61.8027Z" fill="#8E9A9B"/>
<path d="M54 121.803V61.8027L24 55.7292V111.729L54 121.803Z" fill="#8E9A9B"/>
<path d="M76 114.803L76.5 117.229L82.5 115.229L82 112.803L76 114.803Z" fill="black"/>
<path d="M104.5 104.303L105 106.229L110 104.229L109.5 102.303L104.5 104.303Z" fill="black"/>
<path d="M54 61.8027L125 36.8027V33.2292L54 57.2292V61.8027Z" fill="black"/>
<path d="M24 55.7292L54 61.8027V57.2292L24 51.2292V55.7292Z" fill="black"/>
<path d="M24 51.2292L54 57.2292L125 33.2292L98 27.2292L24 51.2292Z" fill="black"/>
<path d="M54 61.8027V121.803M54 61.8027L125 36.8027M54 61.8027L24 55.7292M54 61.8027V57.2292M54 121.803L24 111.729V55.7292M54 121.803C54 121.803 67.4085 117.536 76 114.803M125 36.8027L126.5 95.8027L109.5 102.303M125 36.8027V33.2292M24 55.7292V51.2292M24 51.2292L54 57.2292M24 51.2292L98 27.2292L125 33.2292M54 57.2292L125 33.2292M76 114.803C76.3905 115.584 76.5 117.229 76.5 117.229M76 114.803C78.5384 114.022 79.4616 113.584 82 112.803M76 114.803L76.5 117.229M76 114.803L82 112.803M76.5 117.229L82.5 115.229M82.5 115.229C82.5 115.229 82.3905 113.584 82 112.803M82.5 115.229L82 112.803M82 112.803C91.9584 108.897 104.5 104.303 104.5 104.303M104.5 104.303L105 106.229L110 104.229L109.5 102.303M104.5 104.303L109.5 102.303" stroke="#404040"/>
<path d="M95.264 32.2036C92 25.7891 96.4052 24.2292 97 24.2292C98 24.2292 105.897 24.9763 110.651 25.7891C111.498 26.7901 112.451 29.8705 109.487 34.1845" stroke="#6F6464" stroke-width="3"/>
<path d="M47.0861 47.0434C44.0074 40.9014 48.3225 39.4523 49 39.5C50.1391 39.5802 59.9764 39.2856 65.311 40.4119C66.1761 41.3975 66.8963 46.2831 63.09 50" stroke="#6F6464" stroke-width="3"/>
</svg>
