<svg xmlns="http://www.w3.org/2000/svg" width="20.467" height="10.236" viewBox="0 0 20.467 10.236">
  <g id="eye-variant-with-enlarged-pupil" transform="translate(-0.001 -42.012)">
    <g id="Group_390" data-name="Group 390" transform="translate(0.001 42.012)">
      <circle id="Ellipse_19" data-name="Ellipse 19" cx="2.52" cy="2.52" r="2.52" transform="translate(7.713 2.597)" fill="#707070"/>
      <path id="Path_247" data-name="Path 247" d="M20.341,46.81c-.185-.2-4.575-4.8-10.108-4.8S.311,46.615.127,46.81a.466.466,0,0,0,0,.638c.185.2,4.575,4.8,10.106,4.8s9.925-4.605,10.108-4.8A.464.464,0,0,0,20.341,46.81ZM10.234,51.026a3.9,3.9,0,1,1,3.9-3.9A3.9,3.9,0,0,1,10.234,51.026ZM7.146,43.451a4.763,4.763,0,0,0,0,7.357,16.918,16.918,0,0,1-6.017-3.679A16.931,16.931,0,0,1,7.146,43.451Zm6.178,7.356a4.759,4.759,0,0,0,0-7.354,16.918,16.918,0,0,1,6.016,3.677A16.952,16.952,0,0,1,13.324,50.806Z" transform="translate(-0.001 -42.012)" fill="#707070"/>
    </g>
  </g>
</svg>
